<svg width="15" height="15" viewBox="0 0 15 15" fill="none" xmlns="http://www.w3.org/2000/svg">
<path fill-rule="evenodd" clip-rule="evenodd" d="M0 3.74988C0 2.50724 1.00736 1.49988 2.25 1.49988H12.75C13.9926 1.49988 15 2.50724 15 3.74988V10.4999C15 11.7425 13.9926 12.7499 12.75 12.7499H2.25C1.00736 12.7499 0 11.7425 0 10.4999V3.74988ZM2.25 2.99988C1.83579 2.99988 1.5 3.33566 1.5 3.74988V10.4999C1.5 10.9141 1.83579 11.2499 2.25 11.2499H12.75C13.1642 11.2499 13.5 10.9141 13.5 10.4999V3.74988C13.5 3.33566 13.1642 2.99988 12.75 2.99988H2.25Z" fill="#FF9805"/>
<path fill-rule="evenodd" clip-rule="evenodd" d="M2.99982 5.25018C2.99982 4.83597 3.3356 4.50018 3.74982 4.50018H11.2498C11.664 4.50018 11.9998 4.83597 11.9998 5.25018C11.9998 5.6644 11.664 6.00018 11.2498 6.00018H3.74982C3.3356 6.00018 2.99982 5.6644 2.99982 5.25018Z" fill="#FF9805"/>
</svg>
