<svg width="21" height="17" viewBox="0 0 21 17" fill="none" xmlns="http://www.w3.org/2000/svg">
<path opacity="0.2" d="M4.11625 10.2112C4.11625 8.79816 5.4221 7.67283 6.99493 7.67283H15.4232L13.6425 9.24303C13.049 9.76635 13.049 10.656 13.6425 11.1795C13.9393 11.4413 14.3548 11.572 14.7405 11.572C15.1264 11.572 15.5418 11.4411 15.8385 11.1795L20.29 7.25427C20.8835 6.73095 20.8835 5.84127 20.29 5.31776L15.8385 1.39249C15.245 0.869169 14.236 0.869169 13.6423 1.39249C13.0488 1.91581 13.0488 2.8055 13.6423 3.329L15.4231 4.89921L6.99477 4.89902C3.67099 4.89902 1 7.2804 1 10.1851V14.4419C1 15.3024 1.69758 16 2.55809 16C3.41858 16 4.11616 15.3024 4.11617 14.4419L4.11625 10.2112Z" fill="#373737" stroke="white" stroke-width="0.5"/>
</svg>
