<svg width="18" height="16" viewBox="0 0 18 16" fill="none" xmlns="http://www.w3.org/2000/svg">
<path d="M4.34996 12.7748C2.49163 11.5581 1.29163 9.72481 1.29163 8.11648C1.29163 5.38314 4.74163 2.03314 8.99996 2.03314C10.7416 2.03314 12.3583 2.59148 13.6583 3.45814" stroke="#130F26" stroke-width="1.25" stroke-linecap="round" stroke-linejoin="round"/>
<path d="M15.5414 5.17511C16.2839 6.11678 16.7164 7.15844 16.7164 8.11678C16.7164 10.8501 13.2581 14.2001 8.99977 14.2001C8.24144 14.2001 7.50061 14.0918 6.80811 13.9001" stroke="#130F26" stroke-width="1.25" stroke-linecap="round" stroke-linejoin="round"/>
<path d="M7.13804 9.97246C6.6422 9.48163 6.3647 8.81246 6.3672 8.11496C6.36387 6.6608 7.54054 5.47913 8.99554 5.47663C9.69554 5.47496 10.3672 5.75246 10.8622 6.24746" stroke="#130F26" stroke-width="1.25" stroke-linecap="round" stroke-linejoin="round"/>
<path d="M11.5912 8.58258C11.3962 9.65925 10.5537 10.5034 9.47705 10.7009" stroke="#130F26" stroke-width="1.25" stroke-linecap="round" stroke-linejoin="round"/>
<path d="M15.5764 1.54156L2.4314 14.6866" stroke="#130F26" stroke-width="1.25" stroke-linecap="round" stroke-linejoin="round"/>
</svg>
