<svg width="22" height="24" viewBox="0 0 22 24" fill="none" xmlns="http://www.w3.org/2000/svg">
<path d="M22 2.79341V12.775C22 14.317 20.7437 15.5684 19.1957 15.5684L2.80433 15.5684C1.25629 15.5684 0.00297732 16.455 0 18L4.88134e-06 2.79341C5.19207e-06 1.2514 1.2563 5.74339e-07 2.80434 5.24778e-07L19.1957 0C20.7437 -4.95613e-08 22 1.2514 22 2.79341Z" fill="url(#paint0_linear_1_286)"/>
<path d="M0 18.1089C3.94102e-08 16.555 1.2236 15.6615 2.73784 15.6585L14.9738 15.6585L15 21.5543C15.0087 23.2606 13.3462 24.444 11.7942 23.8404L0.310986 18.6139C0.122069 18.5272 -7.12483e-07 18.336 0.0029057 18.1238L0.00290577 14L0 18.1089Z" fill="#373737"/>
<path d="M19.5 17C18.1193 17 17 18.1193 17 19.5C17 20.8807 18.1193 22 19.5 22C20.8807 22 22 20.8807 22 19.5C22 18.1193 20.8807 17 19.5 17Z" fill="#373737"/>
<defs>
<linearGradient id="paint0_linear_1_286" x1="7.89443" y1="3.08308" x2="22.6238" y2="-1.14511" gradientUnits="userSpaceOnUse">
<stop stop-color="#FF9704"/>
<stop offset="1" stop-color="#FFC702"/>
</linearGradient>
</defs>
</svg>
