<svg width="15" height="15" viewBox="0 0 15 15" fill="none" xmlns="http://www.w3.org/2000/svg">
<path fill-rule="evenodd" clip-rule="evenodd" d="M9.75 8.25018C9.33579 8.25018 9 8.58597 9 9.00018C9 9.4144 9.33579 9.75018 9.75 9.75018C10.1642 9.75018 10.5 9.4144 10.5 9.00018C10.5 8.58597 10.1642 8.25018 9.75 8.25018ZM7.5 9.00018C7.5 7.75754 8.50736 6.75018 9.75 6.75018C10.9926 6.75018 12 7.75754 12 9.00018C12 10.2428 10.9926 11.2502 9.75 11.2502C8.50736 11.2502 7.5 10.2428 7.5 9.00018Z" fill="#373737"/>
<path d="M9.45456 1.58592C9.81301 1.4323 10.2069 1.57887 10.3944 1.88872C10.6089 2.24309 11.07 2.35652 11.4244 2.14207C11.7787 1.92761 11.8922 1.46648 11.6777 1.11211C11.1287 0.204828 9.95426 -0.260186 8.86368 0.207207L1.36368 3.42149C0.536393 3.77604 0 4.5895 0 5.48957C0 5.51247 0.00102656 5.53513 0.00303618 5.55751C0.00102656 5.57989 0 5.60256 0 5.62546V12.0005C0 13.2431 1.00736 14.2505 2.25 14.2505H12.75C13.9926 14.2505 15 13.2431 15 12.0005V6.00046C15 4.75782 13.9926 3.75046 12.75 3.75046H8.625C8.21079 3.75046 7.875 4.08624 7.875 4.50046C7.875 4.91467 8.21079 5.25046 8.625 5.25046H12.75C13.1642 5.25046 13.5 5.58624 13.5 6.00046V12.0005C13.5 12.4147 13.1642 12.7505 12.75 12.7505H2.25C1.83579 12.7505 1.5 12.4147 1.5 12.0005V5.62546C1.5 5.60256 1.49897 5.57989 1.49696 5.55751C1.49897 5.53513 1.5 5.51247 1.5 5.48957C1.5 5.18955 1.6788 4.91839 1.95456 4.80021L9.45456 1.58592Z" fill="#373737"/>
</svg>
